<svg xmlns="http://www.w3.org/2000/svg" viewBox="0 0 94.9 126"><title>Asset 3</title><g id="Layer_2" data-name="Layer 2"><g id="레이어_1" data-name="레이어 1"><path d="M20.84,59.33H56.39c3.87,0,3.87-6,0-6H20.84c-3.86,0-3.87,6,0,6Z"/><path d="M16.39,72.67H52c3.86,0,3.87-6,0-6H16.39c-3.86,0-3.86,6,0,6Z"/><path d="M16.39,112.67H83.06c3.86,0,3.87-6,0-6H16.39c-3.86,0-3.86,6,0,6Z"/><path d="M16.39,126H83.06c3.86,0,3.87-6,0-6H16.39c-3.86,0-3.86,6,0,6Z"/><path d="M38.62,6C65.91,6.36,89,28.77,89,56.33s-23,50-50.33,50.34c-3.86,0-3.87,6,0,6a57.31,57.31,0,0,0,52.86-37c8.28-22,1.1-47.65-17-62.59A57.19,57.19,0,0,0,38.62,0c-3.87,0-3.87,6,0,6Z"/><path d="M6,110.46,37.14,16.9,41.51,3.8c1.22-3.67-4.57-5.25-5.79-1.6L4.54,95.77.17,108.87c-1.23,3.67,4.57,5.25,5.78,1.59Z"/></g></g></svg>